/* XPM */
static char * titleback_xpm[] = {
"70 10 223 2",
"  	c None",
". 	c #27558D",
"+ 	c #26548C",
"@ 	c #25528A",
"# 	c #255087",
"$ 	c #244E85",
"% 	c #234D83",
"& 	c #224B81",
"* 	c #21497F",
"= 	c #21477C",
"- 	c #20467B",
"; 	c #1F4378",
"> 	c #1E4176",
", 	c #1D4074",
"' 	c #1C3E72",
") 	c #1B3D6F",
"! 	c #1B3B6E",
"~ 	c #1A396C",
"{ 	c #193769",
"] 	c #183668",
"^ 	c #173465",
"/ 	c #163364",
"( 	c #163263",
"_ 	c #163162",
": 	c #163062",
"< 	c #163061",
"[ 	c #153060",
"} 	c #152F60",
"| 	c #152E5F",
"1 	c #142E5F",
"2 	c #152E5E",
"3 	c #142C5E",
"4 	c #142C5D",
"5 	c #142B5C",
"6 	c #132B5B",
"7 	c #132A5B",
"8 	c #132A5A",
"9 	c #132A59",
"0 	c #122958",
"a 	c #112858",
"b 	c #122857",
"c 	c #112857",
"d 	c #112656",
"e 	c #102655",
"f 	c #112655",
"g 	c #102554",
"h 	c #102553",
"i 	c #0F2452",
"j 	c #0F2352",
"k 	c #0F2251",
"l 	c #0F2250",
"m 	c #0E214F",
"n 	c #0E204E",
"o 	c #0E1F4D",
"p 	c #0D1F4C",
"q 	c #0D1E4C",
"r 	c #0D1D4B",
"s 	c #0C1D4A",
"t 	c #0D1C49",
"u 	c #0C1C49",
"v 	c #0C1B48",
"w 	c #0C1A47",
"x 	c #0B1A46",
"y 	c #0B1946",
"z 	c #0A1845",
"A 	c #0A1844",
"B 	c #0A1843",
"C 	c #0A1743",
"D 	c #27568E",
"E 	c #27548B",
"F 	c #245187",
"G 	c #234C84",
"H 	c #21497E",
"I 	c #20487C",
"J 	c #20467A",
"K 	c #1E4378",
"L 	c #1E4276",
"M 	c #1C3C70",
"N 	c #1A3A6E",
"O 	c #19376A",
"P 	c #183567",
"Q 	c #173366",
"R 	c #163264",
"S 	c #173263",
"T 	c #163163",
"U 	c #163060",
"V 	c #142D5D",
"W 	c #132C5D",
"X 	c #132B5C",
"Y 	c #142B5B",
"Z 	c #122A59",
"` 	c #132858",
" .	c #122858",
"..	c #122756",
"+.	c #102654",
"@.	c #0F2351",
"#.	c #0F214F",
"$.	c #0E204D",
"%.	c #0D1F4D",
"&.	c #0D1E4B",
"*.	c #0C1D4B",
"=.	c #0D1D4A",
"-.	c #0C1B47",
";.	c #0B1A47",
">.	c #0B1945",
",.	c #27568D",
"'.	c #27548C",
").	c #255088",
"!.	c #234E85",
"~.	c #1E4478",
"{.	c #1D4176",
"].	c #1D4075",
"^.	c #1B3D70",
"/.	c #1B3B6D",
"(.	c #19396C",
"_.	c #173365",
":.	c #173364",
"<.	c #142E5E",
"[.	c #142D5E",
"}.	c #122B5A",
"|.	c #12295A",
"1.	c #112756",
"2.	c #112554",
"3.	c #102453",
"4.	c #0F2453",
"5.	c #102452",
"6.	c #0E2150",
"7.	c #0F204E",
"8.	c #0C1C4A",
"9.	c #0B1A48",
"0.	c #0A1946",
"a.	c #0B1845",
"b.	c #091642",
"c.	c #27558E",
"d.	c #26538B",
"e.	c #255289",
"f.	c #234C83",
"g.	c #224A81",
"h.	c #20477D",
"i.	c #20457A",
"j.	c #1B3C70",
"k.	c #1B3A6E",
"l.	c #1A396B",
"m.	c #18376A",
"n.	c #173264",
"o.	c #153162",
"p.	c #152E60",
"q.	c #132C5C",
"r.	c #142C5B",
"s.	c #132B5A",
"t.	c #122959",
"u.	c #122859",
"v.	c #112757",
"w.	c #112555",
"x.	c #0E2250",
"y.	c #0C1E4B",
"z.	c #0C1D49",
"A.	c #0A1744",
"B.	c #091743",
"C.	c #265289",
"D.	c #245087",
"E.	c #21477D",
"F.	c #1F4478",
"G.	c #183769",
"H.	c #153061",
"I.	c #162F60",
"J.	c #152F5F",
"K.	c #142C5C",
"L.	c #122A5A",
"M.	c #122757",
"N.	c #102351",
"O.	c #0F204F",
"P.	c #0E1F4C",
"Q.	c #0A1944",
"R.	c #28558E",
"S.	c #22497F",
"T.	c #20477C",
"U.	c #1F467A",
"V.	c #153062",
"W.	c #162F61",
"X.	c #132D5D",
"Y.	c #102352",
"Z.	c #0E2251",
"`.	c #0F2150",
" +	c #0B1C48",
".+	c #0B1B47",
"++	c #0B1B46",
"@+	c #0A1945",
"#+	c #0A1643",
"$+	c #21487C",
"%+	c #19396B",
"&+	c #163161",
"*+	c #152D5E",
"=+	c #102555",
"-+	c #102353",
";+	c #0E224F",
">+	c #0E214E",
",+	c #0D1C4A",
"'+	c #245088",
")+	c #244F85",
"!+	c #22497E",
"~+	c #1C3C6F",
"{+	c #1A3B6D",
"]+	c #173567",
"^+	c #0E204F",
"/+	c #0D204D",
"(+	c #0B1B48",
"_+	c #0B1844",
":+	c #26538C",
"<+	c #22487F",
"[+	c #1F4479",
"}+	c #1D3F71",
"|+	c #152F61",
"1+	c #132859",
"2+	c #0C1B49",
"3+	c #0A1846",
"4+	c #224A80",
"5+	c #1F457A",
"6+	c #1C4074",
"7+	c #1C3E71",
"8+	c #1A3A6D",
"9+	c #183568",
"0+	c #0B1B49",
". + @ # $ % & * = - ; > , ' ) ! ~ { ] ^ / ( _ : < [ } | 1 2 3 4 5 6 7 8 9 0 a b c d e f g h i j k l m m n n o p q r s t u v v w x y z A B C ",
"D E @ F $ G & H I J K L , ' M N ~ O P Q R S T : < U } | | 2 V W X Y 7 8 Z `  .b ..d f +.g h i @.@.l m #.n $.%.%.&.*.=.t u v -.;.x >.>.A C C ",
",.'.@ ).!.% & * = - ~.{.].' ^./.(.O P _.:.S ( _ < [ } | <.[.4 4 X 6 }.8 |.0  .b 1.d f +.2.3.4.5.@.k 6.#.7.n %.p &.*.r 8.u v 9.;.x 0.a.z A b.",
"c.d.e.# $ f.g.H h.i.; L , ' j.k.l.m.P ^ n.( _ o.< < } p.1 2 3 q.r.X s.8 t.u. .b v.d f w.h 3.5.j @.l x.#.n n %.%.q y.s z.u u v ;.x y z A A.B.",
"c.+ C.D.$ f.& * E.J F.L , ' M /.(.G.P _.n.n.T : : H.I.J.| [.4 4 K.6 6 L.8 t. .M.v.1.f 2.h 3.3.N.k l l O.n $.%.P.q r =.z.u v ;.;.x 0.Q.A A C ",
"R.+ @ # $ % & S.T.U.; L , ' ^.k.(.G.P ^ n.S ( V.H.W.} | | <.V X.K.Y 8 L.9 t.0 c b d f w.g 3.3.Y.@.Z.`.m n $.o p p &.=.t u  +.+++y @+a.A A.#+",
"D E @ # $ f.g.* $+i.F.{., ' ^.! %+{ ] ^ :.S _ : &+[ } | | *+[.X.K.Y s.L.|. .0 M.v.d f =+g h -+j @.k ;+m >+$.%.o q y.=.,+u v w ;.x y >.A A.C ",
"R.+ e.'+)+% & !+E.i.K L , ' ~+{+~ { ]+^ / R _ _ o.} } 1 2 <.[.K.q.6 s.8 t.0  .c v.f e 2.g 3.j Y.N.Z.l ^+n /+$.q q r s =.u (+-.;.y >._+A B.C ",
"D :+C.).$ f.& <+h.J [+L , }+M k.l.m.]+_.:.( T _ H.|+} J.| [.4 4 K.6 6 Z t.1+ .b v.1.f +.h 3.4.Y.@.k x.m n n %.%.&.&.r 8.u 2+(+;.y 3+z A C #+",
"c.:+@ # $ f.4+* $+5+F.> 6+7+j.8+%+{ 9+_.:.R T _ < [ } J.1 [.V K.X X 7 L.Z t. .M...d e w.g 3.Y.Y.@.l `.m m o /+p &.=.r u 2+0+-.;.0.>.a.A A.#+"};
